# 3ds Max Wavefront OBJ Exporter v0.97b - (c)2007 guruware
# File Created: 12.06.2014 08:54:00

mtllib Sand.mtl

#
# object Sand
#

v  -0.5000 -0.2500 0.0244
v  -0.5000 -0.5000 0.0103
v  -0.2500 -0.2500 0.0171
v  -0.2500 -0.5000 0.0411
v  0.0000 -0.2500 0.0289
v  0.0000 -0.5000 0.0229
v  0.2500 -0.2500 0.0100
v  0.2500 -0.5000 0.0394
v  0.5000 -0.2500 0.0244
v  -0.5000 0.0000 0.0328
v  -0.2500 0.0000 0.0481
v  0.0000 -0.0000 0.0217
v  0.2500 0.0000 0.0365
v  0.5000 0.0000 0.0328
v  -0.5000 0.2500 0.0224
v  -0.2500 0.2500 0.0000
v  0.0000 0.2500 0.0445
v  0.2500 0.2500 0.0187
v  0.5000 0.2500 0.0224
v  -0.5000 0.5000 0.0103
v  -0.2500 0.5000 0.0411
v  0.0000 0.5000 0.0229
v  0.2500 0.5000 0.0394
v  0.5000 0.5000 0.0103
v  0.5000 -0.5000 0.0103
# 25 vertices

vn 0.0292 -0.0561 0.9980
vn -0.0469 0.0954 0.9943
vn 0.0752 -0.0238 0.9969
vn -0.0571 0.1165 0.9915
vn -0.0614 -0.0334 0.9976
vn 0.1044 -0.1227 0.9869
vn -0.0592 0.0286 0.9978
vn 0.0150 -0.1055 0.9943
vn 0.0892 0.0411 0.9952
vn -0.1722 0.1863 0.9673
vn 0.1023 -0.0904 0.9906
vn -0.0148 0.0711 0.9974
vn -0.1218 0.0479 0.9914
vn 0.0714 -0.1616 0.9843
vn -0.0655 0.0859 0.9941
vn 0.1151 -0.0819 0.9900
vn -0.1214 0.0948 0.9881
vn 0.0724 -0.0238 0.9971
vn -0.0653 0.1165 0.9910
vn 0.1153 -0.0558 0.9918
vn 0.0291 -0.1233 0.9919
vn -0.0471 0.0286 0.9985
vn 0.0748 -0.1052 0.9916
vn -0.0574 -0.0334 0.9978
vn -0.0603 0.1887 0.9802
vn 0.1048 -0.0904 0.9904
vn -0.0590 0.0710 0.9957
vn 0.0151 0.0413 0.9990
vn 0.0881 -0.1614 0.9829
vn -0.1746 0.0848 0.9810
vn 0.1023 -0.0820 0.9914
vn -0.0148 0.0483 0.9987
# 32 vertex normals

vt 0.0000 0.2500 0.0000
vt 0.0000 0.0000 0.0000
vt 0.2500 0.2500 0.0000
vt 0.2500 0.0000 0.0000
vt 0.5000 0.2500 0.0000
vt 0.5000 0.0000 0.0000
vt 0.7500 0.2500 0.0000
vt 0.7500 0.0000 0.0000
vt 1.0000 0.2500 0.0000
vt 0.0000 0.5000 0.0000
vt 0.2500 0.5000 0.0000
vt 0.5000 0.5000 0.0000
vt 0.7500 0.5000 0.0000
vt 1.0000 0.5000 0.0000
vt 0.0000 0.7500 0.0000
vt 0.2500 0.7500 0.0000
vt 0.5000 0.7500 0.0000
vt 0.7500 0.7500 0.0000
vt 1.0000 0.7500 0.0000
vt 0.0000 1.0000 0.0000
vt 0.2500 1.0000 0.0000
vt 0.5000 1.0000 0.0000
vt 0.7500 1.0000 0.0000
vt 1.0000 1.0000 0.0000
vt 1.0000 0.0000 0.0000
# 25 texture coords

g Sand
usemtl Desert
f 1/1/1 2/2/1 3/3/1 
f 3/3/2 4/4/2 5/5/2 
f 5/5/3 6/6/3 7/7/3 
f 7/7/4 8/8/4 9/9/4 
f 10/10/5 1/1/5 11/11/5 
f 11/11/6 3/3/6 12/12/6 
f 12/12/7 5/5/7 13/13/7 
f 13/13/8 7/7/8 14/14/8 
f 15/15/9 10/10/9 16/16/9 
f 16/16/10 11/11/10 17/17/10 
f 17/17/11 12/12/11 18/18/11 
f 18/18/12 13/13/12 19/19/12 
f 20/20/13 15/15/13 21/21/13 
f 21/21/14 16/16/14 22/22/14 
f 22/22/15 17/17/15 23/23/15 
f 23/23/16 18/18/16 24/24/16 
f 2/2/17 4/4/17 3/3/17 
f 4/4/18 6/6/18 5/5/18 
f 6/6/19 8/8/19 7/7/19 
f 8/8/20 25/25/20 9/9/20 
f 1/1/21 3/3/21 11/11/21 
f 3/3/22 5/5/22 12/12/22 
f 5/5/23 7/7/23 13/13/23 
f 7/7/24 9/9/24 14/14/24 
f 10/10/25 11/11/25 16/16/25 
f 11/11/26 12/12/26 17/17/26 
f 12/12/27 13/13/27 18/18/27 
f 13/13/28 14/14/28 19/19/28 
f 15/15/29 16/16/29 21/21/29 
f 16/16/30 17/17/30 22/22/30 
f 17/17/31 18/18/31 23/23/31 
f 18/18/32 19/19/32 24/24/32 
# 32 faces

