# 3ds Max Wavefront OBJ Exporter v0.97b - (c)2007 guruware
# File Created: 09.06.2014 20:14:08

mtllib Gun.mtl

#
# object Box007
#

v  -0.2682 0.4535 0.3750
v  -0.2682 0.3776 0.3750
v  -0.2682 0.3776 0.3153
v  -0.2682 0.4535 0.3153
v  -0.3400 0.3776 0.3153
v  -0.3400 0.3776 0.3750
v  -0.3400 0.4535 0.3750
v  -0.3400 0.4535 0.3153
v  -0.2682 0.3776 0.5414
v  -0.2682 0.4535 0.5414
v  -0.3400 0.4535 0.5414
v  -0.3400 0.3776 0.5414
v  -0.2682 0.4535 0.4508
v  -0.3400 0.4535 0.4508
v  -0.2823 0.4393 0.4508
v  -0.2823 0.3918 0.4508
v  -0.2823 0.3918 0.3750
v  -0.2823 0.4393 0.3750
v  -0.3259 0.3918 0.4508
v  -0.3259 0.4393 0.4508
v  -0.3259 0.4393 0.3750
v  -0.3259 0.3918 0.3750
v  -0.2682 0.3776 0.4508
v  -0.3400 0.3776 0.4508
# 24 vertices

vn 1.0000 -0.0000 0.0000
vn -1.0000 0.0000 -0.0000
vn 0.0000 0.0000 -1.0000
vn -0.0000 -1.0000 -0.0000
vn -0.0000 -0.0000 1.0000
vn 0.0000 1.0000 0.0000
vn -0.0000 0.0000 1.0000
# 7 vertex normals

vt 1.0000 0.5000 0.0000
vt 0.0000 0.5000 0.0000
vt 0.0000 0.0000 0.0000
vt 1.0000 0.0000 0.0000
vt 1.0000 1.0000 0.0000
vt 0.0000 1.0000 0.0000
vt 0.5000 0.0000 0.0000
vt 0.5000 1.0000 0.0000
vt 0.2500 0.0000 0.0000
vt 0.2500 1.0000 0.0000
vt 1.0000 0.7500 0.0000
vt 0.0000 0.7500 0.0000
vt 0.7500 0.0000 0.0000
vt 0.7500 1.0000 0.0000
# 14 texture coords

g Box007
usemtl White_Base
f 1/1/1 2/2/1 3/3/1 
f 3/3/1 4/4/1 1/1/1 
f 5/4/2 6/1/2 7/2/2 
f 7/2/2 8/3/2 5/4/2 
f 4/3/3 3/4/3 5/5/3 
f 5/5/3 8/6/3 4/3/3 
f 2/7/4 6/8/4 5/6/4 
f 5/6/4 3/3/4 2/7/4 
f 9/3/5 10/4/5 11/5/5 
f 11/5/5 12/6/5 9/3/5 
f 13/9/6 14/10/6 11/6/6 
f 11/6/6 10/3/6 13/9/6 
f 15/11/1 16/12/1 17/2/1 
f 17/2/1 18/1/1 15/11/1 
f 19/11/2 20/12/2 21/2/2 
f 21/2/2 22/1/2 19/11/2 
f 16/13/4 19/14/4 22/8/4 
f 22/8/4 17/7/4 16/13/4 
f 4/4/6 8/5/6 7/8/6 
f 7/8/6 1/7/6 4/4/6 
f 18/7/6 21/8/6 20/10/6 
f 20/10/6 15/9/6 18/7/6 
f 10/5/1 9/6/1 23/12/1 
f 23/12/1 13/11/1 10/5/1 
f 12/5/2 11/6/2 14/12/2 
f 14/12/2 24/11/2 12/5/2 
f 9/4/4 12/5/4 24/14/4 
f 24/14/4 23/13/4 9/4/4 
f 2/2/5 1/1/5 18/1/5 
f 18/1/5 17/2/5 2/2/5 
f 1/7/5 7/8/5 21/8/5 
f 21/8/7 18/7/7 1/7/7 
f 7/2/5 6/1/5 22/1/5 
f 22/1/5 21/2/5 7/2/5 
f 6/8/5 2/7/5 17/7/5 
f 17/7/7 22/8/7 6/8/7 
f 14/10/3 13/9/3 15/9/3 
f 15/9/3 20/10/3 14/10/3 
f 13/11/3 23/12/3 16/12/3 
f 16/12/3 15/11/3 13/11/3 
f 23/13/3 24/14/3 19/14/3 
f 19/14/3 16/13/3 23/13/3 
f 24/11/3 14/12/3 20/12/3 
f 20/12/3 19/11/3 24/11/3 
# 44 faces

#
# object Box004
#

v  -0.2724 0.2185 0.3804
v  -0.2724 0.2296 0.4220
v  -0.2724 0.1084 0.4545
v  -0.2724 0.0973 0.4129
v  -0.3317 0.2185 0.3804
v  -0.3317 0.0973 0.4129
v  -0.3317 0.1084 0.4545
v  -0.3317 0.2296 0.4220
# 8 vertices

vn 1.0000 -0.0000 0.0000
vn -1.0000 0.0000 -0.0000
vn 0.0000 -0.2588 -0.9659
vn -0.0000 -0.2588 -0.9659
vn -0.0000 -0.9659 0.2588
vn 0.0000 0.2588 0.9659
vn 0.0000 0.9659 -0.2588
# 7 vertex normals

vt 1.0000 0.0000 0.0000
vt 1.0000 1.0000 0.0000
vt 0.0000 1.0000 0.0000
vt 0.0000 0.0000 0.0000
# 4 texture coords

g Box004
usemtl Orange_HighLight
f 25/15/8 26/16/8 27/17/8 
f 27/17/8 28/18/8 25/15/8 
f 29/18/9 30/15/9 31/16/9 
f 31/16/9 32/17/9 29/18/9 
f 25/18/10 28/15/11 30/16/11 
f 30/16/11 29/17/10 25/18/10 
f 28/18/12 27/15/12 31/16/12 
f 31/16/12 30/17/12 28/18/12 
f 27/18/13 26/15/13 32/16/13 
f 32/16/13 31/17/13 27/18/13 
f 26/18/14 25/15/14 29/16/14 
f 29/16/14 32/17/14 26/18/14 
# 12 faces

#
# object Box005
#

v  -0.3333 0.1535 0.4480
v  -0.3333 0.1858 0.5016
v  -0.3333 0.0771 0.5643
v  -0.3333 0.0448 0.5107
v  -0.3642 0.1535 0.4480
v  -0.3642 0.0448 0.5107
v  -0.3642 0.0771 0.5643
v  -0.3642 0.1858 0.5016
# 8 vertices

vn 1.0000 -0.0000 0.0000
vn -1.0000 0.0000 -0.0000
vn 0.0000 -0.5000 -0.8660
vn -0.0000 -0.8565 0.5162
vn 0.0000 0.5000 0.8660
vn -0.0000 0.5000 0.8660
vn 0.0000 0.8565 -0.5162
# 7 vertex normals

vt 1.0000 0.0000 0.0000
vt 1.0000 1.0000 0.0000
vt 0.0000 1.0000 0.0000
vt 0.0000 0.0000 0.0000
# 4 texture coords

g Box005
usemtl Orange_HighLight
f 33/19/15 34/20/15 35/21/15 
f 35/21/15 36/22/15 33/19/15 
f 37/22/16 38/19/16 39/20/16 
f 39/20/16 40/21/16 37/22/16 
f 33/22/17 36/19/17 38/20/17 
f 38/20/17 37/21/17 33/22/17 
f 36/22/18 35/19/18 39/20/18 
f 39/20/18 38/21/18 36/22/18 
f 35/22/19 34/19/20 40/20/20 
f 40/20/20 39/21/19 35/22/19 
f 34/22/21 33/19/21 37/20/21 
f 37/20/21 40/21/21 34/22/21 
# 12 faces

#
# object Box006
#

v  -0.3333 0.3093 0.4264
v  -0.3333 0.3619 0.5097
v  -0.3333 0.2973 0.5493
v  -0.3333 0.2447 0.4660
v  -0.3642 0.3093 0.4264
v  -0.4021 0.2447 0.4660
v  -0.4021 0.2973 0.5493
v  -0.3642 0.3619 0.5097
# 8 vertices

vn 1.0000 -0.0000 0.0000
vn -0.8942 0.3785 -0.2389
vn -0.0000 -0.5225 -0.8526
vn 0.0000 -0.5225 -0.8526
vn -0.0000 -0.8457 0.5336
vn -0.0000 0.5225 0.8526
vn 0.0000 0.5225 0.8526
vn 0.0000 0.8457 -0.5336
# 8 vertex normals

vt 1.0000 0.0000 0.0000
vt 1.0000 1.0000 0.0000
vt 0.0000 1.0000 0.0000
vt 0.0000 0.0000 0.0000
# 4 texture coords

g Box006
usemtl Orange_HighLight
f 41/23/22 42/24/22 43/25/22 
f 43/25/22 44/26/22 41/23/22 
f 45/26/23 46/23/23 47/24/23 
f 47/24/23 48/25/23 45/26/23 
f 41/26/24 44/23/24 46/24/24 
f 46/24/24 45/25/25 41/26/24 
f 44/26/26 43/23/26 47/24/26 
f 47/24/26 46/25/26 44/26/26 
f 43/26/27 42/23/27 48/24/27 
f 48/24/27 47/25/28 43/26/27 
f 42/26/29 41/23/29 45/24/29 
f 45/24/29 48/25/29 42/26/29 
# 12 faces

#
# object Line010
#

v  -0.3124 0.4128 0.5775
v  -0.3124 0.4128 0.5372
v  -0.2981 0.4024 0.5372
v  -0.2981 0.4024 0.5752
v  -0.3069 0.4296 0.5811
v  -0.3069 0.4296 0.5372
v  -0.2893 0.4296 0.5811
v  -0.2893 0.4296 0.5372
v  -0.2839 0.4128 0.5775
v  -0.2839 0.4128 0.5372
v  -0.3124 0.4082 0.5876
v  -0.2981 0.4007 0.5791
v  -0.3069 0.4203 0.6014
v  -0.2893 0.4203 0.6014
v  -0.2839 0.4082 0.5876
v  -0.3124 0.3976 0.5909
v  -0.2981 0.3967 0.5803
v  -0.3069 0.3990 0.6080
v  -0.2893 0.3990 0.6080
v  -0.2839 0.3976 0.5909
v  -0.3124 0.3850 0.5892
v  -0.2981 0.3874 0.5791
v  -0.3069 0.3812 0.6057
v  -0.2893 0.3812 0.6057
v  -0.2839 0.3850 0.5892
v  -0.3124 0.3690 0.5837
v  -0.2981 0.3744 0.5746
v  -0.3069 0.3602 0.5984
v  -0.2893 0.3602 0.5984
v  -0.2839 0.3690 0.5837
v  -0.3124 0.3565 0.5722
v  -0.2981 0.3643 0.5653
v  -0.3069 0.3439 0.5834
v  -0.2893 0.3439 0.5834
v  -0.2839 0.3565 0.5722
v  -0.3124 0.3229 0.5256
v  -0.2981 0.3313 0.5195
v  -0.3069 0.3093 0.5354
v  -0.2893 0.3093 0.5354
v  -0.2839 0.3229 0.5256
# 40 vertices

vn -0.5878 -0.8090 -0.0000
vn -0.9511 0.3090 -0.0000
vn 0.0000 1.0000 -0.0000
vn 0.0000 1.0000 0.0000
vn 0.9511 0.3090 0.0000
vn 0.5878 -0.8090 -0.0000
vn -0.5878 -0.7369 -0.3339
vn -0.9511 0.2815 0.1275
vn 0.0000 0.9109 0.4127
vn 0.9511 0.2815 0.1275
vn 0.5878 -0.7369 -0.3339
vn -0.5878 -0.2363 -0.7737
vn -0.9511 0.0903 0.2955
vn -0.0000 0.2921 0.9564
vn 0.9511 0.0903 0.2955
vn 0.5878 -0.2363 -0.7737
vn -0.5878 0.1040 -0.8023
vn -0.9511 -0.0397 0.3065
vn -0.0000 -0.1286 0.9917
vn 0.0000 -0.1286 0.9917
vn 0.9511 -0.0397 0.3065
vn 0.5878 0.1040 -0.8023
vn -0.5878 0.2647 -0.7645
vn -0.9511 -0.1011 0.2920
vn -0.0000 -0.3272 0.9450
vn 0.9511 -0.1011 0.2920
vn 0.5878 0.2647 -0.7645
vn -0.5878 0.5468 -0.5963
vn -0.9511 -0.2088 0.2278
vn -0.0000 -0.6758 0.7371
vn 0.9511 -0.2088 0.2278
vn 0.5878 0.5468 -0.5963
vn -0.5878 0.6564 -0.4729
vn -0.9511 -0.2507 0.1806
vn -0.0000 -0.8114 0.5845
vn 0.9511 -0.2507 0.1806
vn 0.5878 0.6564 -0.4729
vn 0.0000 0.0000 -1.0000
vn -0.0000 -0.5845 -0.8114
# 39 vertex normals

g Line010
usemtl BlackCoat
f 49//30 50//30 51//30 
f 51//30 52//30 49//30 
f 53//31 54//31 50//31 
f 50//31 49//31 53//31 
f 55//32 56//32 54//32 
f 54//33 53//33 55//33 
f 57//34 58//34 56//34 
f 56//34 55//34 57//34 
f 52//35 51//35 58//35 
f 58//35 57//35 52//35 
f 59//36 49//36 52//36 
f 52//36 60//36 59//36 
f 61//37 53//37 49//37 
f 49//37 59//37 61//37 
f 62//38 55//38 53//38 
f 53//38 61//38 62//38 
f 63//39 57//39 55//39 
f 55//39 62//39 63//39 
f 60//40 52//40 57//40 
f 57//40 63//40 60//40 
f 64//41 59//41 60//41 
f 60//41 65//41 64//41 
f 66//42 61//42 59//42 
f 59//42 64//42 66//42 
f 67//43 62//43 61//43 
f 61//43 66//43 67//43 
f 68//44 63//44 62//44 
f 62//44 67//44 68//44 
f 65//45 60//45 63//45 
f 63//45 68//45 65//45 
f 69//46 64//46 65//46 
f 65//46 70//46 69//46 
f 71//47 66//47 64//47 
f 64//47 69//47 71//47 
f 72//48 67//48 66//48 
f 66//49 71//49 72//49 
f 73//50 68//50 67//50 
f 67//50 72//50 73//50 
f 70//51 65//51 68//51 
f 68//51 73//51 70//51 
f 74//52 69//52 70//52 
f 70//52 75//52 74//52 
f 76//53 71//53 69//53 
f 69//53 74//53 76//53 
f 77//54 72//54 71//54 
f 71//54 76//54 77//54 
f 78//55 73//55 72//55 
f 72//55 77//55 78//55 
f 75//56 70//56 73//56 
f 73//56 78//56 75//56 
f 79//57 74//57 75//57 
f 75//57 80//57 79//57 
f 81//58 76//58 74//58 
f 74//58 79//58 81//58 
f 82//59 77//59 76//59 
f 76//59 81//59 82//59 
f 83//60 78//60 77//60 
f 77//60 82//60 83//60 
f 80//61 75//61 78//61 
f 78//61 83//61 80//61 
f 84//62 79//62 80//62 
f 80//62 85//62 84//62 
f 86//63 81//63 79//63 
f 79//63 84//63 86//63 
f 87//64 82//64 81//64 
f 81//64 86//64 87//64 
f 88//65 83//65 82//65 
f 82//65 87//65 88//65 
f 85//66 80//66 83//66 
f 83//66 88//66 85//66 
f 56//67 58//67 51//67 
f 54//67 56//67 51//67 
f 50//67 54//67 51//67 
f 86//68 84//68 85//68 
f 87//68 86//68 85//68 
f 88//68 87//68 85//68 
# 76 faces

#
# object Box008
#

v  -0.2940 0.4819 0.3498
v  -0.2940 0.4819 0.4893
v  -0.2940 0.4527 0.4893
v  -0.2940 0.4527 0.3498
v  -0.3130 0.4819 0.3498
v  -0.3130 0.4527 0.3498
v  -0.3130 0.4527 0.4893
v  -0.3130 0.4819 0.4893
# 8 vertices

vn 1.0000 -0.0000 0.0000
vn -1.0000 0.0000 -0.0000
vn 0.0000 0.0000 -1.0000
vn -0.0000 -1.0000 -0.0000
vn -0.0000 -0.0000 1.0000
vn 0.0000 1.0000 0.0000
# 6 vertex normals

vt 1.0000 0.0000 0.0000
vt 1.0000 1.0000 0.0000
vt 0.0000 1.0000 0.0000
vt 0.0000 0.0000 0.0000
# 4 texture coords

g Box008
usemtl Orange_HighLight
f 89/27/69 90/28/69 91/29/69 
f 91/29/69 92/30/69 89/27/69 
f 93/30/70 94/27/70 95/28/70 
f 95/28/70 96/29/70 93/30/70 
f 89/30/71 92/27/71 94/28/71 
f 94/28/71 93/29/71 89/30/71 
f 92/30/72 91/27/72 95/28/72 
f 95/28/72 94/29/72 92/30/72 
f 91/30/73 90/27/73 96/28/73 
f 96/28/73 95/29/73 91/30/73 
f 90/30/74 89/27/74 93/28/74 
f 93/28/74 96/29/74 90/30/74 
# 12 faces

#
# object Line009
#

v  -0.3328 -0.0205 0.5596
v  -0.3328 -0.0205 0.5101
v  -0.2995 -0.0447 0.5101
v  -0.2995 -0.0447 0.5644
v  -0.3201 0.0186 0.5518
v  -0.3201 0.0186 0.5101
v  -0.2789 0.0186 0.5518
v  -0.2789 0.0186 0.5101
v  -0.2662 -0.0205 0.5596
v  -0.2662 -0.0205 0.5101
v  -0.3328 -0.0077 0.5906
v  -0.2995 -0.0262 0.6091
v  -0.3201 0.0223 0.5607
v  -0.2789 0.0223 0.5607
v  -0.2662 -0.0077 0.5906
v  -0.3328 0.0234 0.6035
v  -0.2995 0.0185 0.6277
v  -0.3201 0.0311 0.5644
v  -0.2789 0.0311 0.5644
v  -0.2662 0.0234 0.6035
v  -0.3328 0.1821 0.6035
v  -0.2995 0.1869 0.6277
v  -0.3201 0.1743 0.5644
v  -0.2789 0.1743 0.5644
v  -0.2662 0.1821 0.6035
v  -0.3328 0.2131 0.5906
v  -0.2995 0.2316 0.6091
v  -0.3201 0.1831 0.5607
v  -0.2789 0.1831 0.5607
v  -0.2662 0.2131 0.5906
v  -0.3328 0.2259 0.5596
v  -0.2995 0.2501 0.5644
v  -0.3201 0.1868 0.5518
v  -0.2789 0.1868 0.5518
v  -0.2662 0.2259 0.5596
v  -0.3328 0.2259 0.5338
v  -0.2995 0.2501 0.5338
v  -0.3201 0.1868 0.5338
v  -0.2789 0.1868 0.5338
v  -0.2662 0.2259 0.5338
# 40 vertices

vn -0.5878 -0.8090 -0.0000
vn -0.9511 0.3090 -0.0000
vn 0.0000 1.0000 -0.0000
vn 0.9511 0.3090 0.0000
vn 0.5878 -0.8090 -0.0000
vn -0.5878 -0.7473 0.3098
vn -0.9511 0.2855 -0.1183
vn 0.0000 0.9238 -0.3830
vn 0.9511 0.2855 -0.1183
vn 0.5878 -0.7473 0.3098
vn -0.5878 -0.3098 0.7473
vn -0.9511 0.1183 -0.2855
vn 0.0000 0.3830 -0.9238
vn 0.9511 0.1183 -0.2855
vn 0.5878 -0.3098 0.7473
vn -0.5878 0.0000 0.8090
vn -0.9511 0.0000 -0.3090
vn 0.0000 0.0000 -1.0000
vn 0.9511 -0.0000 -0.3090
vn 0.5878 -0.0000 0.8090
vn -0.5878 0.3098 0.7473
vn -0.9511 -0.1183 -0.2855
vn 0.0000 -0.3830 -0.9238
vn 0.9511 -0.1183 -0.2855
vn 0.5878 0.3098 0.7473
vn -0.5878 0.7473 0.3098
vn -0.9511 -0.2855 -0.1183
vn -0.0000 -0.9238 -0.3830
vn 0.9511 -0.2855 -0.1183
vn 0.5878 0.7473 0.3098
vn -0.5878 0.8090 0.0000
vn -0.5878 0.8090 -0.0000
vn -0.9511 -0.3090 -0.0000
vn -0.0000 -1.0000 -0.0000
vn 0.9511 -0.3090 0.0000
vn 0.9511 -0.3090 -0.0000
vn 0.5878 0.8090 -0.0000
# 37 vertex normals

g Line009
usemtl BlackCoat
f 97//75 98//75 99//75 
f 99//75 100//75 97//75 
f 101//76 102//76 98//76 
f 98//76 97//76 101//76 
f 103//77 104//77 102//77 
f 102//77 101//77 103//77 
f 105//78 106//78 104//78 
f 104//78 103//78 105//78 
f 100//79 99//79 106//79 
f 106//79 105//79 100//79 
f 107//80 97//80 100//80 
f 100//80 108//80 107//80 
f 109//81 101//81 97//81 
f 97//81 107//81 109//81 
f 110//82 103//82 101//82 
f 101//82 109//82 110//82 
f 111//83 105//83 103//83 
f 103//83 110//83 111//83 
f 108//84 100//84 105//84 
f 105//84 111//84 108//84 
f 112//85 107//85 108//85 
f 108//85 113//85 112//85 
f 114//86 109//86 107//86 
f 107//86 112//86 114//86 
f 115//87 110//87 109//87 
f 109//87 114//87 115//87 
f 116//88 111//88 110//88 
f 110//88 115//88 116//88 
f 113//89 108//89 111//89 
f 111//89 116//89 113//89 
f 117//90 112//90 113//90 
f 113//90 118//90 117//90 
f 119//91 114//91 112//91 
f 112//91 117//91 119//91 
f 120//92 115//92 114//92 
f 114//92 119//92 120//92 
f 121//93 116//93 115//93 
f 115//93 120//93 121//93 
f 118//94 113//94 116//94 
f 116//94 121//94 118//94 
f 122//95 117//95 118//95 
f 118//95 123//95 122//95 
f 124//96 119//96 117//96 
f 117//96 122//96 124//96 
f 125//97 120//97 119//97 
f 119//97 124//97 125//97 
f 126//98 121//98 120//98 
f 120//98 125//98 126//98 
f 123//99 118//99 121//99 
f 121//99 126//99 123//99 
f 127//100 122//100 123//100 
f 123//100 128//100 127//100 
f 129//101 124//101 122//101 
f 122//101 127//101 129//101 
f 130//102 125//102 124//102 
f 124//102 129//102 130//102 
f 131//103 126//103 125//103 
f 125//103 130//103 131//103 
f 128//104 123//104 126//104 
f 126//104 131//104 128//104 
f 132//105 127//105 128//105 
f 128//106 133//106 132//106 
f 134//107 129//107 127//107 
f 127//107 132//107 134//107 
f 135//108 130//108 129//108 
f 129//108 134//108 135//108 
f 136//109 131//109 130//109 
f 130//110 135//110 136//110 
f 133//111 128//111 131//111 
f 131//111 136//111 133//111 
f 104//92 106//92 99//92 
f 102//92 104//92 99//92 
f 98//92 102//92 99//92 
f 134//92 132//92 133//92 
f 135//92 134//92 133//92 
f 136//92 135//92 133//92 
# 76 faces

#
# object Plane002
#

v  -0.3613 0.0147 0.4177
v  -0.3309 0.0733 0.4269
v  -0.3044 0.0733 0.4269
v  -0.3044 0.0147 0.4177
v  -0.3475 0.2403 0.3823
v  -0.3044 0.2403 0.3823
v  -0.3475 0.3053 0.4244
v  -0.3044 0.3053 0.4244
v  -0.3475 0.3709 0.5220
v  -0.3044 0.3709 0.5220
v  -0.3475 0.3083 0.5591
v  -0.3044 0.3083 0.5591
v  -0.3475 0.2508 0.5381
v  -0.3044 0.2508 0.5381
v  -0.3475 0.1342 0.5408
v  -0.3044 0.1342 0.5408
v  -0.3475 0.0760 0.5678
v  -0.3044 0.0760 0.5678
v  -0.3779 0.0179 0.5691
v  -0.3044 0.0179 0.5691
v  -0.2476 0.0147 0.4177
v  -0.2780 0.0733 0.4269
v  -0.2614 0.2403 0.3823
v  -0.2614 0.3053 0.4244
v  -0.2614 0.3709 0.5220
v  -0.2614 0.3083 0.5591
v  -0.2614 0.2508 0.5381
v  -0.2614 0.1342 0.5408
v  -0.2614 0.0760 0.5678
v  -0.2310 0.0179 0.5691
# 30 vertices

vn 0.0000 0.1556 -0.9878
vn -0.0000 0.1556 -0.9878
vn 0.0000 -0.2581 -0.9661
vn -0.0000 0.5441 -0.8390
vn -0.0000 0.8300 -0.5578
vn 0.0000 0.8300 -0.5578
vn 0.0000 0.5104 0.8599
vn -0.0000 -0.3426 0.9395
vn 0.0000 0.0227 0.9997
vn 0.0000 0.4211 0.9070
vn 0.0000 0.0216 0.9998
vn -0.0000 -0.9998 0.0207
vn -0.9903 0.1369 -0.0222
vn -0.7995 0.4732 -0.3700
vn -0.9125 0.3397 -0.2278
vn -0.9964 0.0356 0.0768
vn -0.8821 0.4589 -0.1065
vn -0.9970 -0.0640 -0.0428
vn -1.0000 0.0000 -0.0000
vn -0.9971 -0.0632 -0.0423
vn -0.9895 -0.1202 -0.0804
vn -0.0000 -0.2581 -0.9661
vn 0.0000 0.5441 -0.8390
vn 0.9903 0.1369 -0.0222
vn 0.9964 0.0356 0.0768
vn 0.9125 0.3397 -0.2278
vn 0.7995 0.4732 -0.3700
vn 0.8821 0.4589 -0.1065
vn 0.9970 -0.0640 -0.0428
vn 0.9895 -0.1202 -0.0804
vn 0.9971 -0.0632 -0.0423
vn 1.0000 -0.0000 -0.0000
# 32 vertex normals

vt 0.0000 0.0000 0.0000
vt 0.0000 1.0000 0.0000
vt 0.5000 1.0000 0.0000
vt 0.5000 0.0000 0.0000
vt 1.0000 1.0000 0.0000
# 5 texture coords

g Plane002
usemtl White_Base
f 137/31/112 138/32/113 139/33/112 
f 139/33/112 140/34/112 137/31/112 
f 139/33/114 138/32/114 141/32/114 
f 141/32/114 142/33/114 139/33/114 
f 142/33/115 141/32/115 143/32/115 
f 143/32/115 144/33/115 142/33/115 
f 144/33/116 143/32/116 145/32/116 
f 145/32/117 146/33/117 144/33/117 
f 146/33/118 145/32/118 147/32/118 
f 147/32/118 148/33/118 146/33/118 
f 148/33/119 147/32/119 149/32/119 
f 149/32/119 150/33/119 148/33/119 
f 150/33/120 149/32/120 151/32/120 
f 151/32/120 152/33/120 150/33/120 
f 152/33/121 151/32/121 153/32/121 
f 153/32/121 154/33/121 152/33/121 
f 154/33/122 153/32/122 155/32/122 
f 155/32/122 156/33/122 154/33/122 
f 156/33/123 155/35/123 137/31/123 
f 137/31/123 140/34/123 156/33/123 
f 151/32/124 138/32/125 137/31/126 
f 137/31/126 153/32/127 151/32/124 
f 155/32/128 153/32/128 137/31/128 
f 151/32/129 149/32/130 141/32/131 
f 141/32/131 138/32/132 151/32/129 
f 149/32/130 147/32/130 143/32/130 
f 143/32/130 141/32/130 149/32/130 
f 145/32/130 143/32/130 147/32/130 
f 157/31/112 140/34/112 139/33/112 
f 139/33/112 158/32/112 157/31/112 
f 139/33/133 142/33/133 159/32/133 
f 159/32/133 158/32/133 139/33/133 
f 142/33/134 144/33/134 160/32/134 
f 160/32/134 159/32/134 142/33/134 
f 144/33/117 146/33/117 161/32/117 
f 161/32/117 160/32/117 144/33/117 
f 146/33/118 148/33/118 162/32/118 
f 162/32/118 161/32/118 146/33/118 
f 148/33/119 150/33/119 163/32/119 
f 163/32/119 162/32/119 148/33/119 
f 150/33/120 152/33/120 164/32/120 
f 164/32/120 163/32/120 150/33/120 
f 152/33/121 154/33/121 165/32/121 
f 165/32/121 164/32/121 152/33/121 
f 154/33/122 156/33/122 166/32/122 
f 166/32/122 165/32/122 154/33/122 
f 156/33/123 140/34/123 157/31/123 
f 157/31/123 166/35/123 156/33/123 
f 164/32/135 165/32/136 157/31/137 
f 157/31/137 158/32/138 164/32/135 
f 166/32/139 157/31/139 165/32/139 
f 164/32/140 158/32/141 159/32/142 
f 159/32/142 163/32/143 164/32/140 
f 163/32/143 159/32/143 160/32/143 
f 160/32/143 162/32/143 163/32/143 
f 161/32/143 162/32/143 160/32/143 
# 56 faces

#
# object Cylinder002
#

v  -0.2411 0.0283 0.5148
v  -0.2626 0.0283 0.5520
v  -0.2626 -0.4823 0.5520
v  -0.2411 -0.4823 0.5148
v  -0.2799 0.0283 0.5620
v  -0.3229 0.0283 0.5620
v  -0.3229 -0.4823 0.5620
v  -0.2799 -0.4823 0.5620
v  -0.3402 0.0283 0.5520
v  -0.3617 0.0283 0.5148
v  -0.3617 -0.4823 0.5148
v  -0.3402 -0.4823 0.5520
v  -0.3617 0.0283 0.4948
v  -0.3402 0.0283 0.4576
v  -0.3402 -0.4823 0.4576
v  -0.3617 -0.4823 0.4948
v  -0.3229 0.0283 0.4476
v  -0.2799 0.0283 0.4476
v  -0.2799 -0.4823 0.4476
v  -0.3229 -0.4823 0.4476
v  -0.2626 0.0283 0.4576
v  -0.2411 0.0283 0.4948
v  -0.2411 -0.4823 0.4948
v  -0.2626 -0.4823 0.4576
v  -0.3229 0.0283 0.4676
v  -0.3444 0.0283 0.5048
v  -0.3229 0.0283 0.5420
v  -0.2799 0.0283 0.5420
v  -0.2584 0.0283 0.5048
v  -0.2799 0.0283 0.4676
v  -0.2799 -0.4982 0.5420
v  -0.3229 -0.4982 0.5420
v  -0.3444 -0.4982 0.5048
v  -0.3229 -0.4982 0.4676
v  -0.2799 -0.4982 0.4676
v  -0.2584 -0.4982 0.5048
v  -0.2498 0.0283 0.5098
v  -0.2712 0.0283 0.5470
v  -0.2712 -0.4823 0.5470
v  -0.2498 -0.4823 0.5098
v  -0.2799 0.0283 0.5520
v  -0.3229 0.0283 0.5520
v  -0.3229 -0.4823 0.5520
v  -0.2799 -0.4823 0.5520
v  -0.3315 0.0283 0.5470
v  -0.3530 0.0283 0.5098
v  -0.3530 -0.4823 0.5098
v  -0.3315 -0.4823 0.5470
v  -0.3530 0.0283 0.4998
v  -0.3315 0.0283 0.4626
v  -0.3315 -0.4823 0.4626
v  -0.3530 -0.4823 0.4998
v  -0.3229 0.0283 0.4576
v  -0.2799 0.0283 0.4576
v  -0.2799 -0.4823 0.4576
v  -0.3229 -0.4823 0.4576
v  -0.2712 0.0283 0.4626
v  -0.2498 0.0283 0.4998
v  -0.2498 -0.4823 0.4998
v  -0.2712 -0.4823 0.4626
# 60 vertices

vn 0.8660 -0.0000 0.5000
vn -0.0000 -0.0000 1.0000
vn -0.8660 -0.0000 0.5000
vn -0.8660 0.0000 -0.5000
vn 0.0000 0.0000 -1.0000
vn 0.8660 0.0000 -0.5000
vn 0.0000 1.0000 0.0000
vn -0.0000 -1.0000 -0.0000
vn -0.5000 -0.0000 0.8660
vn 0.5000 0.0000 -0.8660
vn -1.0000 0.0000 0.0000
vn 1.0000 -0.0000 0.0000
vn -0.5000 0.0000 -0.8660
vn 0.5000 -0.0000 0.8660
# 14 vertex normals

vt 0.7500 0.0000 1.0000
vt 0.9167 0.0000 1.0000
vt 0.9167 1.0000 1.0000
vt 0.7500 1.0000 1.0000
vt 1.0833 0.0000 1.0000
vt 1.0833 1.0000 1.0000
vt 0.0833 0.0000 1.0000
vt 0.2500 0.0000 1.0000
vt 0.2500 1.0000 1.0000
vt 0.0833 1.0000 1.0000
vt 0.4167 0.0000 1.0000
vt 0.4167 1.0000 1.0000
vt 0.5833 0.0000 1.0000
vt 0.5833 1.0000 1.0000
vt 0.9330 0.2500 -0.2500
vt 0.5000 0.0000 -0.2500
vt 0.0670 0.2500 -0.2500
vt 0.0670 0.7500 -0.2500
vt 0.5000 1.0000 -0.2500
vt 0.9330 0.7500 -0.2500
vt 0.0670 0.7500 0.2500
vt 0.0670 0.2500 0.2500
vt 0.5000 0.0000 0.2500
vt 0.9330 0.2500 0.2500
vt 0.9330 0.7500 0.2500
vt 0.5000 1.0000 0.2500
# 26 texture coords

g Cylinder002
usemtl BlackCoat
f 167/36/144 168/37/144 169/38/144 
f 169/38/144 170/39/144 167/36/144 
f 171/37/145 172/40/145 173/41/145 
f 173/41/145 174/38/145 171/37/145 
f 175/42/146 176/43/146 177/44/146 
f 177/44/146 178/45/146 175/42/146 
f 179/43/147 180/46/147 181/47/147 
f 181/47/147 182/44/147 179/43/147 
f 183/46/148 184/48/148 185/49/148 
f 185/49/148 186/47/148 183/46/148 
f 187/48/149 188/36/149 189/39/149 
f 189/39/149 190/49/149 187/48/149 
f 191/50/150 192/51/150 193/52/150 
f 193/52/150 194/53/150 195/54/150 
f 191/50/150 193/52/150 195/54/150 
f 196/55/150 191/50/150 195/54/150 
f 197/56/151 198/57/151 199/58/151 
f 199/58/151 200/59/151 201/60/151 
f 197/56/151 199/58/151 201/60/151 
f 202/61/151 197/56/151 201/60/151 
f 203/36/150 204/37/150 168/37/150 
f 168/37/150 167/36/150 203/36/150 
f 204/37/152 205/38/152 169/38/152 
f 169/38/152 168/37/152 204/37/152 
f 205/38/151 206/39/151 170/39/151 
f 170/39/151 169/38/151 205/38/151 
f 206/39/153 203/36/153 167/36/153 
f 167/36/153 170/39/153 206/39/153 
f 207/37/150 208/40/150 172/40/150 
f 172/40/150 171/37/150 207/37/150 
f 208/40/154 209/41/154 173/41/154 
f 173/41/154 172/40/154 208/40/154 
f 209/41/151 210/38/151 174/38/151 
f 174/38/151 173/41/151 209/41/151 
f 210/38/155 207/37/155 171/37/155 
f 171/37/155 174/38/155 210/38/155 
f 211/42/150 212/43/150 176/43/150 
f 176/43/150 175/42/150 211/42/150 
f 212/43/156 213/44/156 177/44/156 
f 177/44/156 176/43/156 212/43/156 
f 213/44/151 214/45/151 178/45/151 
f 178/45/151 177/44/151 213/44/151 
f 214/45/157 211/42/157 175/42/157 
f 175/42/157 178/45/157 214/45/157 
f 215/43/150 216/46/150 180/46/150 
f 180/46/150 179/43/150 215/43/150 
f 216/46/153 217/47/153 181/47/153 
f 181/47/153 180/46/153 216/46/153 
f 217/47/151 218/44/151 182/44/151 
f 182/44/151 181/47/151 217/47/151 
f 218/44/152 215/43/152 179/43/152 
f 179/43/152 182/44/152 218/44/152 
f 219/46/150 220/48/150 184/48/150 
f 184/48/150 183/46/150 219/46/150 
f 220/48/155 221/49/155 185/49/155 
f 185/49/155 184/48/155 220/48/155 
f 221/49/151 222/47/151 186/47/151 
f 186/47/151 185/49/151 221/49/151 
f 222/47/154 219/46/154 183/46/154 
f 183/46/154 186/47/154 222/47/154 
f 223/48/150 224/36/150 188/36/150 
f 188/36/150 187/48/150 223/48/150 
f 224/36/157 225/39/157 189/39/157 
f 189/39/157 188/36/157 224/36/157 
f 225/39/151 226/49/151 190/49/151 
f 190/49/151 189/39/151 225/39/151 
f 226/49/156 223/48/156 187/48/156 
f 187/48/156 190/49/156 226/49/156 
f 195/54/144 194/53/144 197/56/144 
f 197/56/144 202/61/144 195/54/144 
f 194/53/145 193/52/145 198/57/145 
f 198/57/145 197/56/145 194/53/145 
f 193/52/146 192/51/146 199/58/146 
f 199/58/146 198/57/146 193/52/146 
f 192/51/147 191/50/147 200/59/147 
f 200/59/147 199/58/147 192/51/147 
f 191/50/148 196/55/148 201/60/148 
f 201/60/148 200/59/148 191/50/148 
f 196/55/149 195/54/149 202/61/149 
f 202/61/149 201/60/149 196/55/149 
f 206/39/147 205/38/147 204/37/147 
f 204/37/147 203/36/147 206/39/147 
f 210/38/148 209/41/148 208/40/148 
f 208/40/148 207/37/148 210/38/148 
f 214/45/149 213/44/149 212/43/149 
f 212/43/149 211/42/149 214/45/149 
f 218/44/144 217/47/144 216/46/144 
f 216/46/144 215/43/144 218/44/144 
f 222/47/145 221/49/145 220/48/145 
f 220/48/145 219/46/145 222/47/145 
f 226/49/146 225/39/146 224/36/146 
f 224/36/146 223/48/146 226/49/146 
# 92 faces

