# 3ds Max Wavefront OBJ Exporter v0.97b - (c)2007 guruware
# File Created: 07.06.2014 23:23:41

mtllib 2.mtl

#
# object FireTrail
#

v  2.5818 -0.9677 6.2568
v  0.1157 -2.2770 7.7246
v  0.3594 -2.4561 4.5847
v  1.5560 0.2702 3.5428
v  2.0519 2.1342 6.0387
v  1.1617 0.5600 8.6232
v  -1.9383 0.0157 8.4136
v  -2.4341 -1.8484 5.9177
v  -1.5439 -0.2741 3.3332
v  -0.4980 2.5629 4.2318
v  -0.7417 2.7420 7.3717
v  -2.9640 1.2535 5.6996
# 12 vertices

vn 0.5076 -0.8571 0.0883
vn 0.7090 -0.5009 -0.4964
vn 0.9456 0.1409 -0.2931
vn 0.8905 0.1815 0.4172
vn 0.6198 -0.4353 0.6530
vn -0.5150 -0.6346 0.5763
vn -0.4258 -0.7002 -0.5731
vn 0.0122 0.2978 -0.9545
vn 0.1937 0.9802 -0.0409
vn -0.1321 0.4039 0.9052
vn -0.1937 -0.9802 0.0409
vn 0.1321 -0.4039 -0.9052
vn 0.5150 0.6346 -0.5762
vn 0.4258 0.7002 0.5731
vn -0.0122 -0.2978 0.9545
vn -0.8905 -0.1815 -0.4172
vn -0.6198 0.4353 -0.6530
vn -0.5076 0.8571 -0.0883
vn -0.7090 0.5009 0.4964
vn -0.9456 -0.1409 0.2931
# 20 vertex normals

vt 0.6000 1.0000 10.0000
vt 0.5000 0.6476 10.0000
vt 0.7000 0.6476 10.0000
vt 0.8000 1.0000 10.0000
vt 0.9000 0.6476 10.0000
vt 0.0000 1.0000 10.0000
vt -0.1000 0.6476 10.0000
vt 0.1000 0.6476 10.0000
vt 0.2000 1.0000 10.0000
vt 0.3000 0.6476 10.0000
vt 0.4000 1.0000 10.0000
vt 0.4000 0.3524 10.0000
vt 0.6000 0.3524 10.0000
vt 0.8000 0.3524 10.0000
vt -0.2000 0.3524 10.0000
vt 0.0000 0.3524 10.0000
vt 0.2000 0.3524 10.0000
vt 0.7000 0.0000 10.0000
vt -0.1000 0.0000 10.0000
vt 0.1000 0.0000 10.0000
vt 0.3000 0.0000 10.0000
vt 0.5000 0.0000 10.0000
# 22 texture coords

g FireTrail
usemtl Flame
f 1/1/1 2/2/1 3/3/1 
f 1/4/2 3/3/2 4/5/2 
f 1/6/3 4/7/3 5/8/3 
f 1/9/4 5/8/4 6/10/4 
f 1/11/5 6/10/5 2/2/5 
f 2/2/6 7/12/6 8/13/6 
f 3/3/7 8/13/7 9/14/7 
f 4/7/8 9/15/8 10/16/8 
f 5/8/9 10/16/9 11/17/9 
f 6/10/10 11/17/10 7/12/10 
f 8/13/11 3/3/11 2/2/11 
f 9/14/12 4/5/12 3/3/12 
f 10/16/13 5/8/13 4/7/13 
f 11/17/14 6/10/14 5/8/14 
f 7/12/15 2/2/15 6/10/15 
f 12/18/16 9/14/16 8/13/16 
f 12/19/17 10/16/17 9/15/17 
f 12/20/18 11/17/18 10/16/18 
f 12/21/19 7/12/19 11/17/19 
f 12/22/20 8/13/20 7/12/20 
# 20 faces

#
# object Smoke
#

v  2.4893 -0.9306 6.2068
v  0.1055 -2.1963 7.6257
v  0.3411 -2.3695 4.5905
v  1.4978 0.2659 3.5833
v  1.9771 2.0679 5.9960
v  1.1166 0.5461 8.4943
v  -1.8801 0.0199 8.2917
v  -2.3594 -1.7820 5.8790
v  -1.4989 -0.2602 3.3807
v  -0.4877 2.4822 4.2493
v  -0.7233 2.6554 7.2845
v  -2.8716 1.2165 5.6682
# 12 vertices

vn 0.5076 -0.8571 0.0883
vn 0.7090 -0.5009 -0.4964
vn 0.9456 0.1409 -0.2931
vn 0.8905 0.1815 0.4172
vn 0.6198 -0.4353 0.6530
vn -0.5150 -0.6346 0.5762
vn -0.4258 -0.7002 -0.5731
vn 0.0122 0.2978 -0.9545
vn 0.1937 0.9802 -0.0409
vn -0.1321 0.4039 0.9052
vn -0.1937 -0.9802 0.0409
vn 0.1321 -0.4039 -0.9052
vn 0.5150 0.6346 -0.5762
vn 0.4258 0.7002 0.5731
vn -0.0122 -0.2978 0.9545
vn -0.8905 -0.1815 -0.4172
vn -0.6198 0.4353 -0.6530
vn -0.5076 0.8571 -0.0883
vn -0.7090 0.5009 0.4964
vn -0.9456 -0.1409 0.2931
# 20 vertex normals

vt 0.6000 1.0000 10.0000
vt 0.5000 0.6476 10.0000
vt 0.7000 0.6476 10.0000
vt 0.8000 1.0000 10.0000
vt 0.9000 0.6476 10.0000
vt 0.0000 1.0000 10.0000
vt -0.1000 0.6476 10.0000
vt 0.1000 0.6476 10.0000
vt 0.2000 1.0000 10.0000
vt 0.3000 0.6476 10.0000
vt 0.4000 1.0000 10.0000
vt 0.4000 0.3524 10.0000
vt 0.6000 0.3524 10.0000
vt 0.8000 0.3524 10.0000
vt -0.2000 0.3524 10.0000
vt 0.0000 0.3524 10.0000
vt 0.2000 0.3524 10.0000
vt 0.7000 0.0000 10.0000
vt -0.1000 0.0000 10.0000
vt 0.1000 0.0000 10.0000
vt 0.3000 0.0000 10.0000
vt 0.5000 0.0000 10.0000
# 22 texture coords

g Smoke
usemtl Smoke
f 13/23/21 14/24/21 15/25/21 
f 13/26/22 15/25/22 16/27/22 
f 13/28/23 16/29/23 17/30/23 
f 13/31/24 17/30/24 18/32/24 
f 13/33/25 18/32/25 14/24/25 
f 14/24/26 19/34/26 20/35/26 
f 15/25/27 20/35/27 21/36/27 
f 16/29/28 21/37/28 22/38/28 
f 17/30/29 22/38/29 23/39/29 
f 18/32/30 23/39/30 19/34/30 
f 20/35/31 15/25/31 14/24/31 
f 21/36/32 16/27/32 15/25/32 
f 22/38/33 17/30/33 16/29/33 
f 23/39/34 18/32/34 17/30/34 
f 19/34/35 14/24/35 18/32/35 
f 24/40/36 21/36/36 20/35/36 
f 24/41/37 22/38/37 21/37/37 
f 24/42/38 23/39/38 22/38/38 
f 24/43/39 19/34/39 23/39/39 
f 24/44/40 20/35/40 19/34/40 
f 13/23/21 14/24/21 15/25/21 
f 13/26/22 15/25/22 16/27/22 
f 13/28/23 16/29/23 17/30/23 
f 13/31/24 17/30/24 18/32/24 
f 13/33/25 18/32/25 14/24/25 
f 14/24/26 19/34/26 20/35/26 
f 15/25/27 20/35/27 21/36/27 
f 16/29/28 21/37/28 22/38/28 
f 17/30/29 22/38/29 23/39/29 
f 18/32/30 23/39/30 19/34/30 
f 20/35/31 15/25/31 14/24/31 
f 21/36/32 16/27/32 15/25/32 
f 22/38/33 17/30/33 16/29/33 
f 23/39/34 18/32/34 17/30/34 
f 19/34/35 14/24/35 18/32/35 
f 24/40/36 21/36/36 20/35/36 
f 24/41/37 22/38/37 21/37/37 
f 24/42/38 23/39/38 22/38/38 
f 24/43/39 19/34/39 23/39/39 
f 24/44/40 20/35/40 19/34/40 
f 13/23/21 14/24/21 15/25/21 
f 13/26/22 15/25/22 16/27/22 
f 13/28/23 16/29/23 17/30/23 
f 13/31/24 17/30/24 18/32/24 
f 13/33/25 18/32/25 14/24/25 
f 14/24/26 19/34/26 20/35/26 
f 15/25/27 20/35/27 21/36/27 
f 16/29/28 21/37/28 22/38/28 
f 17/30/29 22/38/29 23/39/29 
f 18/32/30 23/39/30 19/34/30 
f 20/35/31 15/25/31 14/24/31 
f 21/36/32 16/27/32 15/25/32 
f 22/38/33 17/30/33 16/29/33 
f 23/39/34 18/32/34 17/30/34 
f 19/34/35 14/24/35 18/32/35 
f 24/40/36 21/36/36 20/35/36 
f 24/41/37 22/38/37 21/37/37 
f 24/42/38 23/39/38 22/38/38 
f 24/43/39 19/34/39 23/39/39 
f 24/44/40 20/35/40 19/34/40 
# 60 faces

