# 3ds Max Wavefront OBJ Exporter v0.97b - (c)2007 guruware
# File Created: 04.06.2014 10:37:18

mtllib Railing.mtl

#
# object Box011
#

v  -0.5000 -0.2820 0.0000
v  -0.5000 0.2820 0.0000
v  0.5000 0.2820 0.0000
v  0.5000 -0.2820 0.0000
v  0.5000 -0.2820 0.0440
v  0.5000 -0.1999 0.1500
v  -0.5000 -0.1999 0.1500
v  -0.5000 -0.2820 0.0440
v  0.5000 0.2820 0.0440
v  0.5000 0.1999 0.1500
v  -0.5000 0.2820 0.0440
v  -0.5000 0.1999 0.1500
# 12 vertices

vn 0.0000 0.0000 -1.0000
vn 0.0000 -0.7904 0.6125
vn 0.0000 -1.0000 0.0000
vn 1.0000 0.0000 0.0000
vn 0.0000 1.0000 0.0000
vn -1.0000 0.0000 0.0000
vn 0.0000 0.7904 0.6125
vn 0.0000 0.0000 1.0000
# 8 vertex normals

vt 1.0000 0.0000 0.0000
vt 1.0000 1.0000 0.0000
vt 0.0000 1.0000 0.0000
vt 0.0000 0.0000 0.0000
vt 1.0000 0.1456 0.0000
vt 0.0000 0.1456 0.0000
vt 0.8544 1.0000 0.0000
vt 0.1456 1.0000 0.0000
vt 0.0000 0.8544 0.0000
vt 1.0000 0.8544 0.0000
# 10 texture coords

g Box011
usemtl Base
f 1/1/1 2/2/1 3/3/1 
f 3/3/1 4/4/1 1/1/1 
f 5/1/2 6/5/2 7/6/2 
f 7/6/2 8/4/2 5/1/2 
f 1/4/3 4/1/3 5/2/3 
f 5/2/3 8/3/3 1/4/3 
f 4/4/4 3/1/4 9/2/4 
f 9/2/4 10/7/4 6/8/4 
f 4/4/4 9/2/4 6/8/4 
f 4/4/4 6/8/4 5/3/4 
f 3/4/5 2/1/5 11/2/5 
f 11/2/5 9/3/5 3/4/5 
f 2/4/6 1/1/6 8/2/6 
f 8/2/6 7/7/6 12/8/6 
f 2/4/6 8/2/6 12/8/6 
f 2/4/6 12/8/6 11/3/6 
f 9/2/7 11/3/7 12/9/7 
f 12/9/7 10/10/7 9/2/7 
f 6/5/8 10/10/8 12/9/8 
f 12/9/8 7/6/8 6/5/8 
# 20 faces

#
# object Cylinder001
#

v  0.1546 -0.0000 0.1365
v  0.0773 0.1339 0.1365
v  0.0773 0.1339 0.7554
v  0.1546 -0.0000 0.7554
v  -0.0773 0.1339 0.1365
v  -0.0773 0.1339 0.7554
v  -0.1546 -0.0000 0.1365
v  -0.1546 -0.0000 0.7554
v  -0.0773 -0.1339 0.1365
v  -0.0773 -0.1339 0.7554
v  0.0773 -0.1339 0.1365
v  0.0773 -0.1339 0.7554
# 12 vertices

vn 0.8660 0.5000 0.0000
vn 0.0000 1.0000 0.0000
vn -0.8660 0.5000 0.0000
vn -0.8660 -0.5000 0.0000
vn 0.0000 -1.0000 0.0000
vn 0.8660 -0.5000 0.0000
# 6 vertex normals

vt 0.7500 0.0000 1.0000
vt 0.9167 0.0000 1.0000
vt 0.9167 1.0000 1.0000
vt 0.7500 1.0000 1.0000
vt 1.0833 0.0000 1.0000
vt 1.0833 1.0000 1.0000
vt 0.0833 0.0000 1.0000
vt 0.2500 0.0000 1.0000
vt 0.2500 1.0000 1.0000
vt 0.0833 1.0000 1.0000
vt 0.4167 0.0000 1.0000
vt 0.4167 1.0000 1.0000
vt 0.5833 0.0000 1.0000
vt 0.5833 1.0000 1.0000
# 14 texture coords

g Cylinder001
usemtl HighLight
f 13/11/9 14/12/9 15/13/9 
f 15/13/9 16/14/9 13/11/9 
f 14/12/10 17/15/10 18/16/10 
f 18/16/10 15/13/10 14/12/10 
f 17/17/11 19/18/11 20/19/11 
f 20/19/11 18/20/11 17/17/11 
f 19/18/12 21/21/12 22/22/12 
f 22/22/12 20/19/12 19/18/12 
f 21/21/13 23/23/13 24/24/13 
f 24/24/13 22/22/13 21/21/13 
f 23/23/14 13/11/14 16/14/14 
f 16/14/14 24/24/14 23/23/14 
# 12 faces

#
# object Box010
#

v  -0.5000 -0.2000 0.7359
v  -0.5000 0.2000 0.7359
v  0.5000 0.2000 0.7359
v  0.5000 -0.2000 0.7359
v  0.5000 -0.1600 0.8859
v  0.5000 -0.0808 0.8859
v  -0.5000 -0.0808 0.8859
v  -0.5000 -0.1600 0.8859
v  0.5000 -0.2000 0.8459
v  -0.5000 -0.2000 0.8459
v  0.5000 0.2000 0.8459
v  0.5000 0.1600 0.8859
v  0.5000 0.0808 0.8859
v  0.5000 0.0566 0.8512
v  0.5000 -0.0566 0.8512
v  -0.5000 0.2000 0.8459
v  -0.5000 -0.0566 0.8512
v  -0.5000 0.0566 0.8512
v  -0.5000 0.0808 0.8859
v  -0.5000 0.1600 0.8859
# 20 vertices

vn 0.0000 0.0000 -1.0000
vn 0.0000 0.0000 1.0000
vn 0.0000 -1.0000 0.0000
vn 1.0000 0.0000 0.0000
vn 0.0000 1.0000 0.0000
vn -1.0000 0.0000 0.0000
vn 0.0000 0.8203 0.5719
vn 0.0000 -0.8203 0.5719
vn 0.0000 -0.7071 0.7071
vn 0.0000 0.7071 0.7071
# 10 vertex normals

vt 1.0000 0.0000 0.0000
vt 1.0000 1.0000 0.0000
vt 0.0000 1.0000 0.0000
vt 0.0000 0.0000 0.0000
vt 1.0000 0.1000 0.0000
vt 1.0000 0.2979 0.0000
vt 0.0000 0.2979 0.0000
vt 0.0000 0.1000 0.0000
vt 1.0000 0.7333 0.0000
vt 0.0000 0.7333 0.0000
vt 0.9000 1.0000 0.0000
vt 0.7021 1.0000 0.0000
vt 0.6416 1.0000 0.0000
vt 0.3584 1.0000 0.0000
vt 0.2979 1.0000 0.0000
vt 0.1000 1.0000 0.0000
vt 1.0000 0.9000 0.0000
vt 0.0000 0.9000 0.0000
vt 0.0000 0.7021 0.0000
vt 1.0000 0.7021 0.0000
vt 1.0000 0.3584 0.0000
vt 0.0000 0.3584 0.0000
vt 0.0000 0.6416 0.0000
vt 1.0000 0.6416 0.0000
vt 0.0000 0.7286 0.0000
vt 1.0000 0.7286 0.0000
# 26 texture coords

g Box010
usemtl Base
f 25/25/15 26/26/15 27/27/15 
f 27/27/15 28/28/15 25/25/15 
f 29/29/16 30/30/16 31/31/16 
f 31/31/16 32/32/16 29/29/16 
f 25/28/17 28/25/17 33/33/17 
f 33/33/17 34/34/17 25/28/17 
f 27/25/18 35/33/18 36/35/18 
f 28/28/18 27/25/18 36/35/18 
f 36/35/18 37/36/18 38/37/18 
f 28/28/18 36/35/18 38/37/18 
f 28/28/18 38/37/18 39/38/18 
f 28/28/18 39/38/18 30/39/18 
f 30/39/18 29/40/18 33/34/18 
f 28/28/18 30/39/18 33/34/18 
f 27/28/19 26/25/19 40/33/19 
f 40/33/19 35/34/19 27/28/19 
f 25/25/20 34/33/20 32/35/20 
f 26/28/20 25/25/20 32/35/20 
f 32/35/20 31/36/20 41/37/20 
f 26/28/20 32/35/20 41/37/20 
f 26/28/20 41/37/20 42/38/20 
f 26/28/20 42/38/20 43/39/20 
f 43/39/20 44/40/20 40/34/20 
f 26/28/20 43/39/20 40/34/20 
f 36/41/16 44/42/16 43/43/16 
f 43/43/16 37/44/16 36/41/16 
f 39/45/21 41/46/21 31/31/21 
f 31/31/21 30/30/21 39/45/21 
f 37/44/22 43/43/22 42/47/22 
f 42/47/22 38/48/22 37/44/22 
f 39/45/16 38/48/16 42/47/16 
f 42/47/16 41/46/16 39/45/16 
f 32/49/23 34/34/23 33/33/23 
f 33/33/23 29/50/23 32/49/23 
f 36/49/24 35/34/24 40/33/24 
f 40/33/24 44/50/24 36/49/24 
# 36 faces

