# 3ds Max Wavefront OBJ Exporter v0.97b - (c)2007 guruware
# File Created: 26.05.2014 21:44:21

mtllib Barrel.mtl

#
# object Barrel
#

v  0.433567 0.000000 0.000000
v  0.216783 0.375480 0.000000
v  0.249166 0.431568 0.333333
v  0.498332 0.000000 0.333333
v  -0.216783 0.375480 0.000000
v  -0.249166 0.431568 0.333333
v  -0.433567 -0.000000 0.000000
v  -0.498332 -0.000000 0.333333
v  -0.216783 -0.375480 0.000000
v  -0.249166 -0.431568 0.333333
v  0.216783 -0.375480 0.000000
v  0.249166 -0.431568 0.333333
v  0.249166 0.431568 0.666667
v  0.498332 0.000000 0.666667
v  -0.249166 0.431568 0.666667
v  -0.498332 -0.000000 0.666667
v  -0.249166 -0.431568 0.666667
v  0.249166 -0.431568 0.666667
v  0.216783 0.375480 1.000000
v  0.433567 0.000000 1.000000
v  -0.216783 0.375480 1.000000
v  -0.433567 -0.000000 1.000000
v  -0.216783 -0.375480 1.000000
v  0.216783 -0.375480 1.000000
v  0.166576 0.288518 0.954495
v  -0.166576 0.288517 0.954495
v  -0.333151 -0.000000 0.954495
v  -0.166576 -0.288518 0.954495
v  0.166576 -0.288518 0.954495
v  0.333151 0.000000 0.954495
v  0.179398 0.310727 1.000000
v  0.358797 0.000000 1.000000
v  -0.179399 0.310727 1.000000
v  -0.358797 -0.000000 1.000000
v  -0.179398 -0.310727 1.000000
v  0.179398 -0.310727 1.000000
# 36 vertices

vn 0.854020 0.493069 -0.165933
vn -0.000000 0.986137 -0.165933
vn -0.854020 0.493068 -0.165933
vn -0.854020 -0.493069 -0.165933
vn 0.000000 -0.986137 -0.165933
vn 0.854020 -0.493069 -0.165933
vn 0.866025 0.500000 0.000000
vn -0.000000 1.000000 0.000000
vn -0.866025 0.500000 0.000000
vn -0.866025 -0.500000 0.000000
vn 0.000000 -1.000000 0.000000
vn 0.866025 -0.500000 0.000000
vn 0.854020 0.493069 0.165933
vn -0.000000 0.986137 0.165933
vn -0.854020 0.493068 0.165933
vn -0.854020 -0.493069 0.165933
vn 0.000000 -0.986137 0.165933
vn 0.854020 -0.493069 0.165933
vn 0.000000 0.000000 -1.000000
vn 0.000000 0.000000 1.000000
vn -0.778273 -0.449336 0.438620
vn 0.000000 -0.898673 0.438620
vn 0.778273 -0.449336 0.438620
vn 0.778273 0.449336 0.438620
vn 0.778273 0.449337 0.438620
vn 0.000000 0.898673 0.438620
vn -0.778273 0.449336 0.438620
# 27 vertex normals

vt 0.750000 0.000000 1.000000
vt 0.916667 0.000000 1.000000
vt 0.916667 0.333333 1.000000
vt 0.750000 0.333333 1.000000
vt 1.083333 0.000000 1.000000
vt 1.083333 0.333333 1.000000
vt 0.083333 0.000000 1.000000
vt 0.250000 0.000000 1.000000
vt 0.250000 0.333333 1.000000
vt 0.083333 0.333333 1.000000
vt 0.416667 0.000000 1.000000
vt 0.416667 0.333333 1.000000
vt 0.583333 0.000000 1.000000
vt 0.583333 0.333333 1.000000
vt 0.916667 0.666667 1.000000
vt 0.750000 0.666667 1.000000
vt 1.083333 0.666667 1.000000
vt 0.250000 0.666667 1.000000
vt 0.083333 0.666667 1.000000
vt 0.416667 0.666667 1.000000
vt 0.583333 0.666667 1.000000
vt 0.916667 1.000000 1.000000
vt 0.750000 1.000000 1.000000
vt 1.083333 1.000000 1.000000
vt 0.250000 1.000000 1.000000
vt 0.083333 1.000000 1.000000
vt 0.416667 1.000000 1.000000
vt 0.583333 1.000000 1.000000
vt 0.933013 0.250000 -0.250000
vt 0.500000 0.000000 -0.250000
vt 0.066987 0.250000 -0.250000
vt 0.066987 0.750000 -0.250000
vt 0.500000 1.000000 -0.250000
vt 0.933013 0.750000 -0.250000
vt 0.066987 0.750000 0.250000
vt 0.066987 0.250000 0.250000
vt 0.500000 0.000000 0.250000
vt 0.933013 0.250000 0.250000
vt 0.933013 0.750000 0.250000
vt 0.500000 1.000000 0.250000
# 40 texture coords

g Barrel
usemtl Barrel
f 1/1/1 2/2/1 3/3/1 
f 3/3/1 4/4/1 1/1/1 
f 2/2/2 5/5/2 6/6/2 
f 6/6/2 3/3/2 2/2/2 
f 5/7/3 7/8/3 8/9/3 
f 8/9/3 6/10/3 5/7/3 
f 7/8/4 9/11/4 10/12/4 
f 10/12/4 8/9/4 7/8/4 
f 9/11/5 11/13/5 12/14/5 
f 12/14/5 10/12/5 9/11/5 
f 11/13/6 1/1/6 4/4/6 
f 4/4/6 12/14/6 11/13/6 
f 4/4/7 3/3/7 13/15/7 
f 13/15/7 14/16/7 4/4/7 
f 3/3/8 6/6/8 15/17/8 
f 15/17/8 13/15/8 3/3/8 
f 6/10/9 8/9/9 16/18/9 
f 16/18/9 15/19/9 6/10/9 
f 8/9/10 10/12/10 17/20/10 
f 17/20/10 16/18/10 8/9/10 
f 10/12/11 12/14/11 18/21/11 
f 18/21/11 17/20/11 10/12/11 
f 12/14/12 4/4/12 14/16/12 
f 14/16/12 18/21/12 12/14/12 
f 14/16/13 13/15/13 19/22/13 
f 19/22/13 20/23/13 14/16/13 
f 13/15/14 15/17/14 21/24/14 
f 21/24/14 19/22/14 13/15/14 
f 15/19/15 16/18/15 22/25/15 
f 22/25/15 21/26/15 15/19/15 
f 16/18/16 17/20/16 23/27/16 
f 23/27/16 22/25/16 16/18/16 
f 17/20/17 18/21/17 24/28/17 
f 24/28/17 23/27/17 17/20/17 
f 18/21/18 14/16/18 20/23/18 
f 20/23/18 24/28/18 18/21/18 
f 9/29/19 7/30/19 5/31/19 
f 5/31/19 2/32/19 1/33/19 
f 9/29/19 5/31/19 1/33/19 
f 11/34/19 9/29/19 1/33/19 
f 25/35/20 26/36/20 27/37/20 
f 27/37/20 28/38/20 29/39/20 
f 25/35/20 27/37/20 29/39/20 
f 30/40/20 25/35/20 29/39/20 
f 20/23/20 19/22/20 31/35/20 
f 31/35/20 32/40/20 20/23/20 
f 19/22/20 21/24/20 33/36/20 
f 33/36/20 31/35/20 19/22/20 
f 21/26/20 22/25/20 34/37/20 
f 34/37/20 33/36/20 21/26/20 
f 22/25/20 23/27/20 35/38/20 
f 35/38/20 34/37/20 22/25/20 
f 23/27/20 24/28/20 36/39/20 
f 36/39/20 35/38/20 23/27/20 
f 24/28/20 20/23/20 32/40/20 
f 32/40/20 36/39/20 24/28/20 
f 32/40/21 31/35/21 25/35/21 
f 25/35/21 30/40/21 32/40/21 
f 31/35/22 33/36/22 26/36/22 
f 26/36/22 25/35/22 31/35/22 
f 33/36/23 34/37/23 27/37/23 
f 27/37/23 26/36/23 33/36/23 
f 34/37/24 35/38/24 28/38/24 
f 28/38/25 27/37/25 34/37/25 
f 35/38/26 36/39/26 29/39/26 
f 29/39/26 28/38/26 35/38/26 
f 36/39/27 32/40/27 30/40/27 
f 30/40/27 29/39/27 36/39/27 
# 68 faces

#
# object BarrelRing
#

v  0.270968 0.469331 0.675139
v  0.262225 0.454187 0.765139
v  0.524450 0.000000 0.765139
v  0.541936 -0.000000 0.675139
v  -0.270968 0.469331 0.675139
v  -0.262225 0.454187 0.765139
v  -0.541936 -0.000000 0.675139
v  -0.524450 -0.000000 0.765139
v  -0.270968 -0.469331 0.675139
v  -0.262225 -0.454187 0.765139
v  0.270968 -0.469331 0.675139
v  0.262225 -0.454187 0.765139
v  0.498332 0.000000 0.666667
v  0.249166 0.431568 0.666667
v  -0.249166 0.431568 0.666667
v  -0.498332 -0.000000 0.666667
v  -0.249166 -0.431568 0.666667
v  0.249166 -0.431568 0.666667
v  0.240423 0.416424 0.756667
v  0.480845 0.000000 0.756667
v  0.240423 -0.416424 0.756667
v  -0.240423 -0.416424 0.756667
v  -0.480845 -0.000000 0.756667
v  -0.240423 0.416424 0.756667
v  0.270968 0.469331 0.324861
v  0.541936 -0.000000 0.324861
v  0.524450 0.000000 0.234861
v  0.262225 0.454187 0.234861
v  -0.270968 0.469331 0.324861
v  -0.262225 0.454187 0.234861
v  -0.541936 -0.000000 0.324861
v  -0.524450 -0.000000 0.234861
v  -0.270968 -0.469331 0.324861
v  -0.262225 -0.454187 0.234861
v  0.270968 -0.469331 0.324861
v  0.262225 -0.454187 0.234861
v  0.498332 0.000000 0.333333
v  0.249166 0.431568 0.333333
v  -0.249166 0.431568 0.333333
v  -0.498332 -0.000000 0.333333
v  -0.249166 -0.431568 0.333333
v  0.249166 -0.431568 0.333333
v  0.240423 0.416424 0.243333
v  0.480845 0.000000 0.243333
v  0.240423 -0.416424 0.243333
v  -0.240423 -0.416424 0.243333
v  -0.480845 -0.000000 0.243333
v  -0.240423 0.416424 0.243333
# 48 vertices

vn 0.854020 0.493068 0.165934
vn 0.854020 0.493068 0.165933
vn -0.000000 0.986137 0.165933
vn -0.000000 0.986137 0.165934
vn -0.854020 0.493068 0.165933
vn -0.854020 -0.493069 0.165933
vn 0.000000 -0.986137 0.165933
vn 0.854020 -0.493069 0.165933
vn 0.189584 0.109456 -0.975744
vn -0.000000 0.218913 -0.975744
vn -0.000000 0.218912 -0.975745
vn -0.189584 0.109456 -0.975744
vn -0.189584 -0.109456 -0.975744
vn 0.000000 -0.218913 -0.975744
vn 0.000000 -0.218912 -0.975744
vn 0.189584 -0.109456 -0.975744
vn -0.189584 -0.109456 0.975744
vn -0.189584 0.109456 0.975744
vn 0.000000 0.218912 0.975744
vn 0.189584 0.109456 0.975744
vn 0.189584 -0.109456 0.975744
vn 0.000000 -0.218913 0.975745
vn 0.000000 -0.218913 0.975744
vn 0.854020 0.493068 -0.165933
vn 0.854020 0.493068 -0.165934
vn -0.000000 0.986137 -0.165934
vn -0.000000 0.986137 -0.165933
vn -0.854020 0.493068 -0.165933
vn -0.854020 -0.493069 -0.165933
vn 0.000000 -0.986137 -0.165933
vn 0.854020 -0.493069 -0.165933
vn -0.000000 0.218912 0.975745
vn -0.000000 0.218913 0.975744
vn 0.000000 -0.218912 0.975744
vn 0.000000 0.218912 -0.975744
vn 0.000000 -0.218913 -0.975745
# 36 vertex normals

vt 0.916667 0.666667 1.000000
vt 0.916667 0.756667 1.000000
vt 0.750000 0.756667 1.000000
vt 0.750000 0.666667 1.000000
vt 1.083333 0.666667 1.000000
vt 1.083333 0.756667 1.000000
vt 0.250000 0.666667 1.000000
vt 0.250000 0.756667 1.000000
vt 0.083333 0.756667 1.000000
vt 0.083333 0.666667 1.000000
vt 0.416667 0.666667 1.000000
vt 0.416667 0.756667 1.000000
vt 0.583333 0.666667 1.000000
vt 0.583333 0.756667 1.000000
# 14 texture coords

g BarrelRing
usemtl Ring
f 37/41/28 38/42/28 39/43/28 
f 39/43/29 40/44/29 37/41/29 
f 41/45/30 42/46/30 38/42/30 
f 38/42/31 37/41/31 41/45/31 
f 43/47/32 44/48/32 42/49/32 
f 42/49/32 41/50/32 43/47/32 
f 45/51/33 46/52/33 44/48/33 
f 44/48/33 43/47/33 45/51/33 
f 47/53/34 48/54/34 46/52/34 
f 46/52/34 45/51/34 47/53/34 
f 40/44/35 39/43/35 48/54/35 
f 48/54/35 47/53/35 40/44/35 
f 49/44/36 50/41/36 37/41/36 
f 37/41/36 40/44/36 49/44/36 
f 50/41/37 51/45/37 41/45/37 
f 41/45/38 37/41/38 50/41/38 
f 51/50/39 52/47/39 43/47/39 
f 43/47/39 41/50/39 51/50/39 
f 52/47/40 53/51/40 45/51/40 
f 45/51/40 43/47/40 52/47/40 
f 53/51/41 54/53/41 47/53/41 
f 47/53/42 45/51/42 53/51/42 
f 54/53/43 49/44/43 40/44/43 
f 40/44/43 47/53/43 54/53/43 
f 55/42/44 56/43/44 39/43/44 
f 39/43/44 38/42/44 55/42/44 
f 56/43/45 57/54/45 48/54/45 
f 48/54/45 39/43/45 56/43/45 
f 57/54/46 58/52/46 46/52/46 
f 46/52/46 48/54/46 57/54/46 
f 58/52/47 59/48/47 44/48/47 
f 44/48/47 46/52/47 58/52/47 
f 59/48/48 60/49/48 42/49/48 
f 42/49/48 44/48/48 59/48/48 
f 60/46/49 55/42/49 38/42/49 
f 38/42/50 42/46/50 60/46/50 
f 61/41/51 62/44/51 63/43/51 
f 63/43/52 64/42/52 61/41/52 
f 65/45/53 61/41/53 64/42/53 
f 64/42/54 66/46/54 65/45/54 
f 67/47/55 65/50/55 66/49/55 
f 66/49/55 68/48/55 67/47/55 
f 69/51/56 67/47/56 68/48/56 
f 68/48/56 70/52/56 69/51/56 
f 71/53/57 69/51/57 70/52/57 
f 70/52/57 72/54/57 71/53/57 
f 62/44/58 71/53/58 72/54/58 
f 72/54/58 63/43/58 62/44/58 
f 73/44/47 62/44/47 61/41/47 
f 61/41/47 74/41/47 73/44/47 
f 74/41/59 61/41/59 65/45/59 
f 65/45/60 75/45/60 74/41/60 
f 75/50/45 65/50/45 67/47/45 
f 67/47/45 76/47/45 75/50/45 
f 76/47/44 67/47/44 69/51/44 
f 69/51/44 77/51/44 76/47/44 
f 77/51/61 69/51/61 71/53/61 
f 71/53/50 78/53/50 77/51/50 
f 78/53/48 71/53/48 62/44/48 
f 62/44/48 73/44/48 78/53/48 
f 79/42/40 64/42/40 63/43/40 
f 63/43/40 80/43/40 79/42/40 
f 80/43/39 63/43/39 72/54/39 
f 72/54/39 81/54/39 80/43/39 
f 81/54/62 72/54/62 70/52/62 
f 70/52/62 82/52/62 81/54/62 
f 82/52/36 70/52/36 68/48/36 
f 68/48/36 83/48/36 82/52/36 
f 83/48/43 68/48/43 66/49/43 
f 66/49/43 84/49/43 83/48/43 
f 84/46/41 66/46/41 64/42/41 
f 64/42/63 79/42/63 84/46/63 
# 72 faces

