# 3ds Max Wavefront OBJ Exporter v0.97b - (c)2007 guruware
# File Created: 04.06.2014 11:01:25

mtllib StoneStair.mtl

#
# object Box012
#

v  0.0000 0.5000 1.0000
v  0.0000 0.5000 0.0000
v  -0.2500 0.5000 0.0000
v  -0.2400 0.5000 1.0000
v  -0.2500 0.5000 0.9900
v  0.0000 0.2500 1.0000
v  0.2400 0.2500 1.0000
v  0.2400 0.5000 1.0000
v  0.0000 -0.5000 0.0000
v  0.0000 -0.5000 0.2400
v  -0.0100 -0.5000 0.2500
v  -0.2500 -0.5000 0.2500
v  -0.2500 -0.5000 0.0000
v  0.5000 0.5000 1.0000
v  0.5000 0.2500 1.0000
v  0.5000 0.2500 0.7500
v  0.5000 0.5000 0.0000
v  0.5000 0.0000 0.7500
v  0.5000 0.0000 0.5000
v  0.5000 0.2500 0.0000
v  0.5000 -0.2500 0.5000
v  0.5000 -0.2500 0.2500
v  0.5000 0.0000 0.0000
v  0.5000 -0.5000 0.2500
v  0.5000 -0.5000 0.0000
v  0.5000 -0.2500 0.0000
v  -0.5000 0.5000 0.0000
v  -0.5000 0.2500 0.0000
v  -0.5000 0.0000 0.0000
v  -0.5000 -0.2500 0.0000
v  -0.5000 -0.5000 0.0000
v  -0.5000 -0.5000 0.2500
v  -0.5000 -0.2500 0.2500
v  -0.5000 -0.2500 0.5000
v  -0.5000 0.0000 0.5000
v  -0.5000 0.0000 0.7500
v  -0.5000 0.2500 0.7500
v  -0.5000 0.2500 1.0000
v  -0.5000 0.5000 1.0000
v  0.0000 0.2500 0.7600
v  0.0100 0.2500 0.7500
v  0.2500 0.2500 0.7500
v  0.2500 0.2500 0.9900
v  0.0100 0.0000 0.7500
v  0.2500 0.0000 0.7500
v  0.0000 0.0000 0.5000
v  0.0000 0.0000 0.7400
v  -0.0100 0.0000 0.7500
v  -0.2500 0.0000 0.7500
v  -0.2400 0.0000 0.5000
v  -0.2500 0.0000 0.5100
v  0.0000 -0.2500 0.5000
v  -0.2400 -0.2500 0.5000
v  -0.2500 -0.2500 0.2500
v  -0.0100 -0.2500 0.2500
v  0.0000 -0.2500 0.2600
v  -0.2500 -0.2500 0.4900
v  0.2500 0.5000 0.0000
v  0.2600 0.5000 1.0000
v  0.2500 0.5000 0.9900
v  -0.2600 0.5000 1.0000
v  -0.2600 0.2500 1.0000
v  -0.2400 0.2500 1.0000
v  0.2600 0.2500 1.0000
v  0.2500 -0.5000 0.2500
v  0.2500 -0.5000 0.0000
v  0.0100 -0.5000 0.2500
v  -0.2500 0.2500 0.7500
v  -0.2500 0.2500 0.9900
v  -0.0100 0.2500 0.7500
v  0.2600 0.0000 0.5000
v  0.2500 0.0000 0.5100
v  0.2400 0.0000 0.5000
v  -0.2600 0.0000 0.5000
v  0.2600 -0.2500 0.5000
v  0.2400 -0.2500 0.5000
v  -0.2600 -0.2500 0.5000
v  0.2500 -0.2500 0.4900
v  0.2500 -0.2500 0.2500
v  0.0100 -0.2500 0.2500
# 80 vertices

vn 0.0000 1.0000 0.0000
vn 0.0000 0.0000 1.0000
vn 0.0000 -1.0000 0.0000
vn 1.0000 0.0000 0.0000
vn -1.0000 0.0000 0.0000
# 5 vertex normals

vt 0.5000 1.0000 0.0000
vt 0.5000 0.0000 0.0000
vt 0.7500 0.0000 0.0000
vt 0.7400 1.0000 0.0000
vt 0.7500 0.9900 0.0000
vt 0.5000 0.7500 0.0000
vt 0.7400 0.7500 0.0000
vt 0.5000 0.2400 0.0000
vt 0.4900 0.2500 0.0000
vt 0.2500 0.2500 0.0000
vt 0.2500 0.0000 0.0000
vt 1.0000 1.0000 0.0000
vt 0.7500 1.0000 0.0000
vt 0.7500 0.7500 0.0000
vt 1.0000 0.0000 0.0000
vt 0.5000 0.5000 0.0000
vt 0.2500 0.5000 0.0000
vt 0.0000 0.2500 0.0000
vt 0.0000 0.0000 0.0000
vt 1.0000 0.2500 0.0000
vt 0.7500 0.2500 0.0000
vt 0.7500 0.5000 0.0000
vt 0.2500 0.7500 0.0000
vt 0.2500 1.0000 0.0000
vt 0.0000 1.0000 0.0000
vt 0.0200 0.5000 0.0000
vt 0.0000 0.5050 0.0000
vt 0.0000 0.6250 0.0000
vt 0.7400 0.2600 0.0000
vt 0.7200 0.2650 0.0000
vt 0.8725 0.1225 0.0000
vt 0.8125 0.0625 0.0000
vt 0.1250 0.6250 0.0000
vt 0.8450 0.1450 0.0000
vt 0.8775 0.1275 0.0000
vt 0.9375 0.1875 0.0000
vt 0.1850 0.8050 0.0000
vt 0.2175 0.7875 0.0000
vt 0.6250 0.5000 0.0000
vt 0.6850 0.7400 0.0000
vt 0.8125 0.5625 0.0000
vt 0.6325 0.3825 0.0000
vt 0.6250 0.3800 0.0000
vt 0.6925 0.7425 0.0000
vt 0.4900 0.4900 0.0000
vt 0.2400 1.0000 0.0000
vt 0.2500 0.9900 0.0000
vt 0.2600 1.0000 0.0000
vt 0.7600 1.0000 0.0000
vt 0.0000 0.7500 0.0000
vt 0.2400 0.7500 0.0000
vt 0.2600 0.7500 0.0000
vt 1.0000 0.7500 0.0000
vt 0.7600 0.7500 0.0000
vt 0.5100 0.2500 0.0000
vt 0.0000 0.3750 0.0000
vt 0.2400 0.7600 0.0000
vt 0.2400 0.7350 0.0000
vt 0.2600 0.7400 0.0000
vt 0.0000 0.4950 0.0000
vt 0.7600 0.2400 0.0000
vt 0.0600 0.4300 0.0000
vt 0.0925 0.4225 0.0000
vt 0.0650 0.4450 0.0000
vt 0.1900 0.8200 0.0000
vt 0.5600 0.2400 0.0000
vt 0.5650 0.2600 0.0000
vt 0.6900 0.7600 0.0000
vt 0.5575 0.2475 0.0000
vt 0.4375 0.1875 0.0000
vt 0.6175 0.3675 0.0000
vt 0.5100 0.5100 0.0000
# 72 texture coords

g Box012
usemtl Base
f 1/1/1 2/2/1 3/3/1 
f 4/4/1 1/1/1 3/3/1 
f 5/5/1 4/4/1 3/3/1 
f 1/1/2 6/6/2 7/7/2 
f 7/7/2 8/4/2 1/1/2 
f 9/2/3 10/8/3 11/9/3 
f 9/2/3 11/9/3 12/10/3 
f 13/11/3 9/2/3 12/10/3 
f 14/12/4 15/13/4 16/14/4 
f 17/15/4 14/12/4 16/14/4 
f 16/14/4 18/6/4 19/16/4 
f 17/15/4 16/14/4 19/16/4 
f 20/3/4 17/15/4 19/16/4 
f 19/16/4 21/17/4 22/10/4 
f 20/3/4 19/16/4 22/10/4 
f 23/2/4 20/3/4 22/10/4 
f 22/10/4 24/18/4 25/19/4 
f 22/10/4 25/19/4 26/11/4 
f 23/2/4 22/10/4 26/11/4 
f 27/19/5 28/11/4 29/2/5 
f 30/3/5 31/15/5 32/20/5 
f 30/3/5 32/20/5 33/21/5 
f 29/2/5 30/3/5 33/21/5 
f 27/19/5 29/2/5 33/21/5 
f 33/21/5 34/22/5 35/16/5 
f 27/19/5 33/21/5 35/16/5 
f 35/16/5 36/6/5 37/23/5 
f 27/19/5 35/16/5 37/23/5 
f 27/19/5 37/23/5 38/24/5 
f 27/19/5 38/24/5 39/25/5 
f 6/16/3 40/26/3 41/27/3 
f 6/16/3 41/27/3 42/28/3 
f 7/29/3 6/16/3 42/28/3 
f 43/30/3 7/29/3 42/28/3 
f 41/27/2 44/31/2 45/32/2 
f 45/32/2 42/28/2 41/27/2 
f 46/33/3 47/34/3 48/35/3 
f 46/33/3 48/35/3 49/36/3 
f 50/37/3 46/33/3 49/36/3 
f 51/38/3 50/37/3 49/36/3 
f 52/39/2 46/33/2 50/37/2 
f 50/37/2 53/40/2 52/39/2 
f 54/41/3 55/42/3 56/43/3 
f 52/39/3 53/40/3 57/44/3 
f 56/43/3 52/39/3 57/44/3 
f 54/41/3 56/43/3 57/44/3 
f 11/45/2 55/42/2 54/41/2 
f 54/41/2 12/10/2 11/45/2 
f 14/25/1 17/19/1 58/11/1 
f 59/46/1 14/25/1 58/11/1 
f 60/47/1 59/46/1 58/11/1 
f 1/1/1 8/48/1 60/47/1 
f 60/47/1 58/11/1 2/2/1 
f 1/1/1 60/47/1 2/2/1 
f 39/12/1 61/49/1 5/5/1 
f 27/15/1 39/12/1 5/5/1 
f 3/3/1 27/15/1 5/5/1 
f 39/25/2 38/50/2 62/51/2 
f 62/51/2 61/46/2 39/25/2 
f 4/48/2 63/52/2 6/6/2 
f 6/6/2 1/1/2 4/48/2 
f 15/53/2 14/12/2 59/49/2 
f 59/49/2 64/54/2 15/53/2 
f 25/15/3 24/20/3 65/21/3 
f 65/21/3 66/3/3 25/15/3 
f 65/21/3 67/55/3 10/8/3 
f 66/3/3 65/21/3 10/8/3 
f 9/2/3 66/3/3 10/8/3 
f 32/18/3 31/19/3 13/11/3 
f 13/11/3 12/10/3 32/18/3 
f 38/25/3 37/18/3 68/56/3 
f 62/57/3 38/25/3 68/56/3 
f 69/58/3 62/57/3 68/56/3 
f 6/16/3 63/59/3 69/58/3 
f 68/56/3 70/60/3 40/26/3 
f 69/58/3 68/56/3 40/26/3 
f 6/16/3 69/58/3 40/26/3 
f 15/15/3 64/61/3 43/30/3 
f 16/50/3 15/15/3 43/30/3 
f 42/28/3 16/50/3 43/30/3 
f 37/18/2 36/20/2 49/36/2 
f 49/36/2 68/56/2 37/18/2 
f 68/56/2 49/36/2 48/35/2 
f 48/35/2 70/60/2 68/56/2 
f 18/3/2 16/50/2 42/28/2 
f 42/28/2 45/32/2 18/3/2 
f 19/18/3 18/3/3 45/32/3 
f 71/62/3 19/18/3 45/32/3 
f 72/63/3 71/62/3 45/32/3 
f 46/33/3 73/64/3 72/63/3 
f 45/32/3 44/31/3 47/34/3 
f 72/63/3 45/32/3 47/34/3 
f 46/33/3 72/63/3 47/34/3 
f 35/24/3 74/65/3 51/38/3 
f 36/20/3 35/24/3 51/38/3 
f 49/36/3 36/20/3 51/38/3 
f 21/2/2 19/18/2 71/62/2 
f 71/62/2 75/66/2 21/2/2 
f 76/67/2 73/64/2 46/33/2 
f 46/33/2 52/39/2 76/67/2 
f 35/24/2 34/13/2 77/68/2 
f 77/68/2 74/65/2 35/24/2 
f 21/2/3 75/66/3 78/69/3 
f 22/11/3 21/2/3 78/69/3 
f 79/70/3 22/11/3 78/69/3 
f 79/70/3 78/69/3 76/67/3 
f 79/70/3 76/67/3 52/39/3 
f 80/71/3 79/70/3 52/39/3 
f 56/43/3 80/71/3 52/39/3 
f 34/13/3 33/53/3 54/41/3 
f 77/68/3 34/13/3 54/41/3 
f 57/44/3 77/68/3 54/41/3 
f 24/12/2 22/11/2 79/70/2 
f 79/70/2 65/14/2 24/12/2 
f 65/14/2 79/70/2 80/71/2 
f 80/71/2 67/72/2 65/14/2 
f 33/53/2 32/19/2 12/10/2 
f 12/10/2 54/41/2 33/53/2 
f 59/46/1 60/47/1 8/48/1 
f 61/49/1 4/4/1 5/5/1 
f 62/57/3 69/58/3 63/59/3 
f 64/61/3 7/29/3 43/30/3 
f 10/8/3 67/55/3 11/9/3 
f 40/26/3 70/60/3 41/27/3 
f 48/35/3 47/34/3 44/31/3 
f 74/65/3 50/37/3 51/38/3 
f 71/62/3 72/63/3 73/64/3 
f 77/68/3 57/44/3 53/40/3 
f 75/66/3 76/67/3 78/69/3 
f 80/71/3 56/43/3 55/42/3 
# 130 faces

#
# object Object001
#

v  -0.2400 0.5000 0.9500
v  -0.2600 0.5000 0.9500
v  -0.2600 0.2500 0.9500
v  -0.2400 0.2500 0.9500
v  0.2400 0.2500 0.9500
v  0.2600 0.2500 0.9500
v  0.2600 0.5000 0.9500
v  0.2400 0.5000 0.9500
v  0.0100 0.2500 0.7000
v  -0.0100 0.2500 0.7000
v  -0.0100 0.0000 0.7000
v  0.0100 0.0000 0.7000
v  0.2400 -0.2500 0.4500
v  0.2600 -0.2500 0.4500
v  0.2600 0.0000 0.4500
v  0.2400 0.0000 0.4500
v  -0.2400 0.0000 0.4500
v  -0.2600 0.0000 0.4500
v  -0.2600 -0.2500 0.4500
v  -0.2400 -0.2500 0.4500
v  -0.0100 -0.5000 0.2000
v  0.0100 -0.5000 0.2000
v  0.0100 -0.2500 0.2000
v  -0.0100 -0.2500 0.2000
v  -0.2400 0.2500 1.0000
v  -0.2400 0.5000 1.0000
v  -0.2600 0.5000 1.0000
v  -0.2600 0.2500 1.0000
v  0.2400 0.5000 1.0000
v  0.2400 0.2500 1.0000
v  0.2600 0.2500 1.0000
v  0.2600 0.5000 1.0000
v  0.0100 0.0000 0.7500
v  0.0100 0.2500 0.7500
v  -0.0100 0.2500 0.7500
v  -0.0100 0.0000 0.7500
v  0.2400 0.0000 0.5000
v  0.2400 -0.2500 0.5000
v  0.2600 -0.2500 0.5000
v  0.2600 0.0000 0.5000
v  -0.2400 -0.2500 0.5000
v  -0.2400 0.0000 0.5000
v  -0.2600 0.0000 0.5000
v  -0.2600 -0.2500 0.5000
v  -0.0100 -0.2500 0.2500
v  -0.0100 -0.5000 0.2500
v  0.0100 -0.5000 0.2500
v  0.0100 -0.2500 0.2500
# 48 vertices

vn 0.0000 0.0000 1.0000
vn -1.0000 0.0000 0.0000
vn 0.0000 -1.0000 0.0000
vn 1.0000 0.0000 0.0000
vn 0.0000 1.0000 0.0000
# 5 vertex normals

vt 0.2600 1.0000 0.0000
vt 0.2400 1.0000 0.0000
vt 0.2400 0.7500 0.0000
vt 0.2600 0.7500 0.0000
vt 0.7400 0.7500 0.0000
vt 0.7600 0.7500 0.0000
vt 0.7600 1.0000 0.0000
vt 0.7400 1.0000 0.0000
vt 0.0000 0.5050 0.0000
vt 0.0000 0.4950 0.0000
vt 0.8775 0.1275 0.0000
vt 0.8725 0.1225 0.0000
vt 0.5650 0.2600 0.0000
vt 0.5600 0.2400 0.0000
vt 0.0600 0.4300 0.0000
vt 0.0650 0.4450 0.0000
vt 0.1850 0.8050 0.0000
vt 0.1900 0.8200 0.0000
vt 0.6900 0.7600 0.0000
vt 0.6850 0.7400 0.0000
vt 0.4900 0.4900 0.0000
vt 0.5100 0.5100 0.0000
vt 0.6175 0.3675 0.0000
vt 0.6325 0.3825 0.0000
vt 0.2400 0.7600 0.0000
vt 0.2600 0.7400 0.0000
vt 0.7400 0.2600 0.0000
vt 0.7600 0.2400 0.0000
vt 0.4900 0.2500 0.0000
vt 0.5100 0.2500 0.0000
# 30 texture coords

g Object001
usemtl HighLight
f 81/73/6 82/74/6 83/75/6 
f 83/75/6 84/76/6 81/73/6 
f 85/77/6 86/78/6 87/79/6 
f 87/79/6 88/80/6 85/77/6 
f 89/81/6 90/82/6 91/83/6 
f 91/83/6 92/84/6 89/81/6 
f 93/85/6 94/86/6 95/87/6 
f 95/87/6 96/88/6 93/85/6 
f 97/89/6 98/90/6 99/91/6 
f 99/91/6 100/92/6 97/89/6 
f 101/93/6 102/94/6 103/95/6 
f 103/95/6 104/96/6 101/93/6 
f 105/76/7 106/73/7 81/73/7 
f 81/73/7 84/76/7 105/76/7 
f 106/80/8 107/79/8 82/74/8 
f 82/74/8 81/73/8 106/80/8 
f 107/74/9 108/75/9 83/75/9 
f 83/75/9 82/74/9 107/74/9 
f 108/97/10 105/98/10 84/76/10 
f 84/76/10 83/75/10 108/97/10 
f 109/80/9 110/77/9 85/77/9 
f 85/77/9 88/80/9 109/80/9 
f 110/99/10 111/100/10 86/78/10 
f 86/78/10 85/77/10 110/99/10 
f 111/78/7 112/79/7 87/79/7 
f 87/79/7 86/78/7 111/78/7 
f 112/74/8 109/73/8 88/80/8 
f 88/80/8 87/79/8 112/74/8 
f 113/84/7 114/81/7 89/81/7 
f 89/81/7 92/84/7 113/84/7 
f 114/81/8 115/82/8 90/82/8 
f 90/82/8 89/81/8 114/81/8 
f 115/82/9 116/83/9 91/83/9 
f 91/83/9 90/82/9 115/82/9 
f 116/83/10 113/84/10 92/84/10 
f 92/84/10 91/83/10 116/83/10 
f 117/88/9 118/85/9 93/85/9 
f 93/85/9 96/88/9 117/88/9 
f 118/85/10 119/86/10 94/86/10 
f 94/86/10 93/85/10 118/85/10 
f 119/86/7 120/87/7 95/87/7 
f 95/87/7 94/86/7 119/86/7 
f 120/87/8 117/88/8 96/88/8 
f 96/88/8 95/87/8 120/87/8 
f 121/92/7 122/89/7 97/89/7 
f 97/89/7 100/92/7 121/92/7 
f 122/89/8 123/90/8 98/90/8 
f 98/90/8 97/89/8 122/89/8 
f 123/90/9 124/91/9 99/91/9 
f 99/91/9 98/90/9 123/90/9 
f 124/91/10 121/92/10 100/92/10 
f 100/92/10 99/91/10 124/91/10 
f 125/96/9 126/93/9 101/93/9 
f 101/93/9 104/96/9 125/96/9 
f 126/101/10 127/102/10 102/94/10 
f 102/94/10 101/93/10 126/101/10 
f 127/94/7 128/95/7 103/95/7 
f 103/95/7 102/94/7 127/94/7 
f 128/95/8 125/96/8 104/96/8 
f 104/96/8 103/95/8 128/95/8 
# 60 faces

